<?xml version="1.0" encoding="UTF-8" standalone="no"?>
<!-- Created with Inkscape (http://www.inkscape.org/) -->

<svg
   version="1.1"
   id="svg2"
   width="617.38"
   height="617.38"
   viewBox="0 0 617.38003 617.38003"
   sodipodi:docname="code-coffee.svg"
   xml:space="preserve"
   inkscape:version="1.2 (dc2aedaf03, 2022-05-15)"
   xmlns:inkscape="http://www.inkscape.org/namespaces/inkscape"
   xmlns:sodipodi="http://sodipodi.sourceforge.net/DTD/sodipodi-0.dtd"
   xmlns="http://www.w3.org/2000/svg"
   xmlns:svg="http://www.w3.org/2000/svg"><defs
     id="defs6" /><sodipodi:namedview
     id="namedview4"
     pagecolor="#505050"
     bordercolor="#eeeeee"
     borderopacity="1"
     inkscape:showpageshadow="0"
     inkscape:pageopacity="0"
     inkscape:pagecheckerboard="0"
     inkscape:deskcolor="#505050"
     showgrid="false"
     showguides="false"
     inkscape:zoom="0.5630991"
     inkscape:cx="185.58012"
     inkscape:cy="406.67797"
     inkscape:window-width="1920"
     inkscape:window-height="1009"
     inkscape:window-x="-8"
     inkscape:window-y="-8"
     inkscape:window-maximized="1"
     inkscape:current-layer="g8" /><g
     inkscape:groupmode="layer"
     inkscape:label="Image"
     id="g8"
     transform="translate(-363.013,-224.65044)"><g
       id="g7611"
       transform="translate(50.788682,-1.1158125e-4)"><g
         id="g1517"
         style="fill:#13111b;fill-opacity:1;stroke:#13111b;stroke-opacity:1"><path
           d="m 512.23821,841.53067 q -34.65063,0 -54.89595,-17.51998 -19.85598,-17.13066 -17.13065,-48.2773 l 5.83999,-62.68261 q 1.94667,-19.46665 -5.83999,-28.03198 -7.39733,-8.95466 -30.75731,-8.95466 H 363.513 v -34.65063 h 45.9413 q 23.35998,0 30.75731,-8.95466 7.78666,-8.95466 5.83999,-28.42131 l -5.83999,-63.07195 q -2.72533,-30.75731 17.13065,-47.88796 20.24532,-17.51999 54.89595,-17.51999 h 19.85599 v 34.65064 h -18.29865 q -17.51999,0 -26.86398,8.17599 -9.34399,8.176 -8.176,23.74932 l 5.84,63.07195 q 1.94667,21.80264 -8.95466,35.4293 -10.90132,13.23732 -30.75731,16.35199 19.85599,3.89333 30.75731,18.68798 10.90133,14.79465 8.95466,36.20797 l -5.84,63.07195 q -1.16799,15.57332 8.176,23.74931 9.34399,8.17599 26.86398,8.17599 h 18.29865 v 34.65064 z"
           style="font-weight:500;font-size:389.333px;line-height:1.25;font-family:'JetBrains Mono';-inkscape-font-specification:'JetBrains Mono Medium';fill:#13111b;fill-opacity:1;stroke:#13111b;stroke-opacity:1"
           id="path7594" /><path
           d="m 709.73445,841.53067 v -34.65064 h 17.90932 q 17.51998,0 26.86397,-8.17599 9.344,-8.17599 8.176,-23.74931 l -5.84,-63.07195 q -1.94666,-21.41332 8.95466,-36.20797 10.90133,-15.18399 30.75731,-18.68798 -19.85598,-3.504 -30.75731,-16.74132 -10.90132,-13.23733 -8.95466,-35.03997 l 5.84,-63.07195 q 1.168,-15.57332 -8.176,-23.74932 -9.34399,-8.17599 -26.86397,-8.17599 h -17.90932 v -34.65064 h 19.85598 q 34.26131,0 54.11729,17.51999 20.24532,17.13065 17.51999,47.88796 l -5.84,63.07195 q -1.94666,19.46665 5.45066,28.42131 7.78666,8.95466 31.14664,8.95466 h 46.33063 v 34.65063 h -46.33063 q -23.35998,0 -31.14664,8.95466 -7.39732,8.56533 -5.45066,28.03198 l 5.84,62.68261 q 2.72533,31.14664 -17.51999,48.2773 -19.85598,17.51998 -54.11729,17.51998 z"
           style="font-weight:500;font-size:389.333px;line-height:1.25;font-family:'JetBrains Mono';-inkscape-font-specification:'JetBrains Mono Medium';fill:#13111b;fill-opacity:1;stroke:#13111b;stroke-opacity:1"
           id="path7597" /></g><path
         id="rect1632"
         style="display:inline;fill:#13111b;fill-opacity:1;stroke:#13111b;stroke-width:0;stroke-opacity:1"
         d="m 666.99763,605.29535 c -29.83045,14.99522 -54.33134,17.85403 -86.45271,20.66754 -17.56481,1.5385 -57.10337,-49.07576 -55.26172,-29.17773 l 0.7793,8.41992 c 1.29777,14.53504 -1.68561,26.34525 -8.95312,35.42969 -6.25681,7.59752 -14.74036,12.67971 -25.42188,15.27539 v 2.38867 c 10.68134,3.10477 19.16515,8.8857 25.42188,17.37695 7.26751,9.86307 10.25089,21.93154 8.95312,36.20703 l -5.83984,63.07227 c -0.49783,6.63768 0.45363,12.25504 2.82031,16.87695 h 195.35156 c 2.36671,-4.62192 3.31815,-10.23924 2.82031,-16.87695 L 715.375,711.88281 c -1.29778,-14.27547 1.68756,-26.34397 8.95508,-36.20703 6.18185,-8.61046 14.54561,-14.37707 25.04687,-17.35351 v -2.62305 c -10.50121,-2.81158 -18.86504,-7.94657 -25.04687,-15.45313 -7.26752,-8.82484 -10.25286,-20.50599 -8.95508,-35.04101 l 2.05516,-22.18997 c 1.15368,-12.4566 -20.76355,7.36617 -50.43253,22.28024 z"
         sodipodi:nodetypes="sssccccscccccccccscss" /><g
         id="g5575"
         transform="matrix(1.3382417,0,0,1.3382417,183.87641,-5.0730721)"><path
           style="fill:#8f8ca8;fill-opacity:1;stroke:#8f8ca8;stroke-width:0;stroke-opacity:1"
           d="m 300.81634,444.19902 c -9.06004,-13.59933 -17.16269,-28.59855 -17.39308,-45.37049 -1.58366,-20.19375 4.95457,-39.85847 14.25624,-57.50497 14.52469,-27.99988 34.34304,-53.55575 43.9639,-83.90171 4.37893,-12.51206 4.95829,-25.91168 3.98832,-39.02958 -0.17203,-5.34985 -5.87792,-16.9306 -3.84763,-17.96253 6.22494,7.85377 11.43522,16.81407 14.5725,26.33048 5.15085,14.40256 6.95774,30.19355 2.14504,44.96563 -6.3862,29.18458 -25.04423,53.31335 -38.97572,79.13373 -11.35519,20.13089 -22.17845,42.09097 -21.1217,65.8429 -0.35261,9.32456 2.6654,21.04298 3.45295,28.52386 -0.34669,-0.34233 -0.69501,-0.68535 -1.04082,-1.02732 z"
           id="path5556" /><path
           style="fill:#8f8ca8;fill-opacity:1;stroke:#8f8ca8;stroke-width:0;stroke-opacity:1"
           d="m 321.52462,427.81903 c -5.9078,-16.31107 3.133,-33.16637 11.83999,-46.612 13.59622,-20.29455 29.55662,-40.47919 33.92702,-65.16395 0.43978,-3.73169 3.6202,-9.60722 2.57216,-1.95654 1.40663,18.81474 -3.5185,37.83663 -14.10284,53.47339 -12.48701,18.81405 -29.06428,36.301 -33.32858,59.28188 1.75139,0.83943 -1.67571,3.03281 -0.90775,0.97722 z"
           id="path5558" /><path
           style="fill:#8f8ca8;fill-opacity:1;stroke:#8f8ca8;stroke-width:0;stroke-opacity:1"
           d="m 302.78862,291.80515 c 7.49414,-11.7768 9.95818,-26.02367 11.48818,-39.68275 0.24013,-11.21268 0.32212,-22.5417 -1.63857,-33.57037 -0.12548,-10.59608 2.5063,-21.05713 4.85114,-31.3221 1.40446,-4.53787 9.52609,-18.93376 11.9769,-14.84744 -9.63051,20.86447 -5.71886,44.60291 -5.22196,66.81555 0.66748,12.46502 -0.3563,25.6789 -7.90656,36.14091 -3.63837,6.11606 -7.82402,12.11937 -13.54913,16.4662 z"
           id="path5560" /></g></g></g></svg>
